<?xml version="1.0" encoding="UTF-8" standalone="no"?>
<!-- Created with Inkscape (http://www.inkscape.org/) -->

<svg
   xmlns:dc="http://purl.org/dc/elements/1.1/"
   xmlns:cc="http://creativecommons.org/ns#"
   xmlns:rdf="http://www.w3.org/1999/02/22-rdf-syntax-ns#"
   xmlns:svg="http://www.w3.org/2000/svg"
   xmlns="http://www.w3.org/2000/svg"
   xmlns:sodipodi="http://sodipodi.sourceforge.net/DTD/sodipodi-0.dtd"
   xmlns:inkscape="http://www.inkscape.org/namespaces/inkscape"
   width="13.540139mm"
   height="8.5471592mm"
   viewBox="0 0 13.540139 8.547159"
   version="1.1"
   id="svg8"
   inkscape:version="0.92.4 (5da689c313, 2019-01-14)"
   sodipodi:docname="feiting.svg">
  <defs
     id="defs2" />
  <sodipodi:namedview
     id="base"
     pagecolor="#ffffff"
     bordercolor="#666666"
     borderopacity="1.0"
     inkscape:pageopacity="0.0"
     inkscape:pageshadow="2"
     inkscape:zoom="11.313709"
     inkscape:cx="25.760162"
     inkscape:cy="8.6195734"
     inkscape:document-units="mm"
     inkscape:current-layer="g23"
     showgrid="false"
     fit-margin-top="0"
     fit-margin-left="0"
     fit-margin-right="0"
     fit-margin-bottom="0"
     scale-x="1"
     inkscape:pagecheckerboard="true"
     inkscape:window-width="1600"
     inkscape:window-height="860"
     inkscape:window-x="0"
     inkscape:window-y="0"
     inkscape:window-maximized="1" />
  <metadata
     id="metadata5">
    <rdf:RDF>
      <cc:Work
         rdf:about="">
        <dc:format>image/svg+xml</dc:format>
        <dc:type
           rdf:resource="http://purl.org/dc/dcmitype/StillImage" />
        <dc:title></dc:title>
      </cc:Work>
    </rdf:RDF>
  </metadata>
  <g
     inkscape:label="Layer 1"
     inkscape:groupmode="layer"
     id="layer1"
     transform="translate(-82.084098,-61.534442)">
    <g
       id="g23"
       transform="translate(-0.37797621,0.18898812)">
      <g
         id="g67"
         transform="matrix(0.1,0,0,0.1,80.308929,59.05713)">
        <path
           inkscape:connector-curvature="0"
           id="path37"
           d="m 83.001551,108.2104 c -10.056725,-0.0822 -9.444405,0.0423 -10.410941,-2.11686 -0.309383,-0.69115 -1.298358,-2.86398 -2.197719,-4.82851 -0.899361,-1.96453 -1.925317,-4.219815 -2.279904,-5.011742 -0.487074,-1.087824 -0.703723,-1.346584 -0.886103,-1.058333 -0.132768,0.209843 -0.243223,0.649425 -0.245451,0.976846 -0.0021,0.327422 -0.242176,0.833438 -0.533218,1.12448 -0.478895,0.478896 -0.881943,0.529166 -4.242641,0.529166 -3.023507,0 -3.838791,0.08211 -4.387934,0.441921 -0.861399,0.564412 -3.894698,0.730239 -7.244424,0.396047 -4.503022,-0.449252 -6.349999,-1.283116 -6.349999,-2.866867 0,-0.597974 -0.08579,-0.641154 -1.12448,-0.566002 l -1.124479,0.08136 0.09072,1.795359 c 0.0579,1.145807 -0.02561,1.935536 -0.230834,2.182813 -0.510266,0.61483 -1.484699,0.459377 -2.110947,-0.33677 -0.479437,-0.609505 -0.542712,-0.934307 -0.399462,-2.050521 0.313878,-2.445755 0.232451,-4.217469 -0.253345,-5.512353 -0.468231,-1.248063 -0.467219,-1.290955 0.0468,-1.984375 0.288958,-0.389805 0.911197,-0.837047 1.382755,-0.993873 l 0.857377,-0.285134 -2.400424,-1.006599 -2.400424,-1.006599 -1.845942,1.741368 c -2.235337,2.108706 -3.512595,2.618716 -4.900603,1.956821 -1.462016,-0.697187 -1.6555,-2.52241 -0.770044,-7.264183 0.14958,-0.801026 0.02744,-0.981765 -1.845482,-2.730865 -2.029718,-1.895533 -3.956004,-4.531019 -4.725664,-6.465507 -1.386642,-3.485232 -1.214945,-9.420233 0.38394,-13.271548 0.372157,-0.896434 1.225117,-2.477725 1.895467,-3.513979 0.670349,-1.036253 1.218816,-2.044165 1.218816,-2.239801 0,-0.195638 -0.302022,-1.03863 -0.67116,-1.873316 -0.927518,-2.097283 -1.974673,-5.814007 -1.974673,-7.008815 0,-1.84 1.835354,-3.177074 3.843842,-2.80028 0.494413,0.09275 2.174365,1.009249 3.733224,2.036658 1.55886,1.027409 2.986189,1.926306 3.171843,1.997548 0.185654,0.07124 1.563802,-0.635254 3.062551,-1.569991 7.515593,-4.687312 15.954759,-8.249443 27.055522,-11.420003 l 3.957608,-1.130358 0.321299,-1.740867 c 0.416838,-2.258518 0.689872,-2.727618 1.966733,-3.379024 2.382268,-1.215342 13.028966,-3.727916 17.984024,-4.244151 3.883668,-0.404614 5.325745,-0.08203 10.309601,2.306227 l 3.571874,1.711634 4.89418,0.118853 c 13.98829,0.339696 25.6414,3.410289 33.96676,8.950233 2.30565,1.534254 8.44437,7.580246 10.42953,10.271986 3.4212,4.638928 5.3413,9.80061 5.34312,14.363577 0.003,7.356722 -2.56718,12.332338 -8.61015,16.668751 -0.60837,0.436562 -2.69956,2.139548 -4.64708,3.784415 -4.17517,3.526319 -7.82694,6.040951 -11.47845,7.904131 -5.24298,2.675228 -12.02183,5.014971 -16.98994,5.864132 l -2.58923,0.442558 -0.19258,1.741734 c -0.19866,1.796669 -1.60193,6.180338 -2.77266,8.661458 -0.40732,0.86325 -0.98806,1.60746 -1.49608,1.91724 -0.91016,0.55498 1.38213,0.52674 -25.155124,0.30991 z M 45.42733,92.366069 c 0.72757,-0.866592 0.975641,-0.979493 2.513541,-1.143952 0.938467,-0.100357 1.52771,-0.260813 1.309429,-0.356571 -0.399677,-0.175332 -6.811626,-2.30041 -6.941663,-2.300637 -0.03839,-6.9e-5 -0.07111,0.68454 -0.07271,1.521354 -0.0016,0.836811 -0.101384,1.839243 -0.221736,2.227625 -0.189662,0.612053 -0.136389,0.721836 0.399789,0.823865 1.714004,0.326157 2.195059,0.202964 3.01335,-0.771684 z"
           style="fill:#f3edcc;stroke-width:0.26458332" />
        <path
           inkscape:connector-curvature="0"
           id="path35"
           d="m 94.50408,108.22376 c -6.228516,-0.0526 -10.277831,-0.18736 -10.437812,-0.34734 -0.1529,-0.1529 -2.251858,-0.26139 -5.057142,-0.26139 -4.646128,0 -4.811638,-0.0186 -5.304896,-0.59531 -0.658262,-0.76967 -1.169685,-1.69015 -1.17404,-2.11308 -0.0019,-0.18387 -1.051293,-2.59634 -2.332003,-5.361033 -2.499088,-5.394828 -3.03044,-6.035977 -3.356203,-4.049715 -0.327025,1.99395 -0.490976,2.064972 -4.766767,2.064972 -3.265707,0 -3.930195,0.07448 -5.038558,0.564764 -1.210331,0.535387 -1.441262,0.549635 -4.439674,0.273947 -1.739614,-0.159949 -3.257777,-0.232201 -3.373694,-0.16056 -0.211979,0.131011 -3.130277,-0.773036 -4.002862,-1.240028 -0.280054,-0.149881 -0.468046,-0.554194 -0.468046,-1.006623 0,-0.445421 -0.171978,-0.82213 -0.418514,-0.916734 -0.625267,-0.239937 -2.440198,-0.193728 -2.600854,0.06622 -0.0771,0.124751 -0.0284,0.913601 0.108211,1.753005 0.162069,0.995788 0.156149,1.698543 -0.01703,2.022139 -0.383425,0.716433 -1.470527,0.628732 -1.987553,-0.160351 -0.442919,-0.675979 -0.424862,-1.483881 0.09346,-4.181398 0.210741,-1.096767 0.160302,-1.429626 -0.377661,-2.492238 -0.785163,-1.550897 -0.780098,-2.0599 0.02855,-2.868544 0.69707,-0.697071 1.693187,-0.846814 2.208068,-0.331933 0.402542,0.402543 0.407314,1.834878 0.01052,3.159239 -0.168836,0.563523 -0.254171,1.077394 -0.189632,1.141931 0.06454,0.06454 0.904227,0.197962 1.865975,0.296498 1.635932,0.167605 1.760289,0.142425 1.929491,-0.390681 0.297288,-0.936673 1.260112,-1.350354 3.554717,-1.527302 1.192233,-0.09194 2.069718,-0.265139 1.949965,-0.384892 -0.119753,-0.119753 -1.643522,-0.652974 -3.386157,-1.184937 -1.742634,-0.531963 -4.927388,-1.676291 -7.07723,-2.542955 l -3.908803,-1.575753 -1.637493,1.516028 c -2.784343,2.577812 -3.966168,3.019423 -5.291195,1.977158 -0.934763,-0.735286 -1.05658,-1.783919 -0.580047,-4.993207 l 0.416215,-2.803064 -1.843138,-1.728301 c -2.439915,-2.2879 -3.535287,-3.725672 -4.651434,-6.105417 -2.045059,-4.360286 -1.754985,-9.800077 0.789476,-14.805179 0.480864,-0.945885 1.237605,-2.255573 1.681649,-2.910416 0.972821,-1.434648 0.984289,-1.655858 0.180108,-3.474255 -1.042671,-2.357662 -2.016324,-5.739055 -2.016324,-7.002472 0,-0.90417 0.152994,-1.341987 0.638671,-1.827665 1.500299,-1.500299 2.96296,-1.215178 6.823074,1.330042 1.644113,1.084068 3.134783,1.972716 3.312602,1.974774 0.177818,0.0021 1.400185,-0.703374 2.71637,-1.567628 2.861387,-1.878887 8.460686,-4.751627 12.835323,-6.585207 4.746021,-1.989242 9.31627,-3.514976 17.07162,-5.699199 l 1.461206,-0.411535 0.298569,-1.896147 c 0.360783,-2.291248 0.88547,-2.912258 3.133323,-3.708534 2.887368,-1.022816 11.74856,-3.125475 15.601708,-3.702106 l 3.79617,-0.568103 1.940576,0.584007 c 1.067316,0.321204 3.547919,1.354575 5.512451,2.29638 l 3.571874,1.712374 4.89418,0.118852 c 14.07197,0.341728 25.43775,3.350513 33.85985,8.963484 3.0169,2.010638 5.98039,4.951522 5.68653,5.643158 -1.8076,4.254454 -2.50411,8.026619 -2.50411,13.561821 0,3.738836 0.39212,9.46952 0.66674,9.744139 0.21355,0.213553 5.80677,-2.196748 7.06941,-3.046439 0.71687,-0.48242 2.0605,-1.541822 2.98584,-2.354223 l 1.68244,-1.477094 0.17832,0.950573 c 0.46623,2.485218 -0.82471,8.162907 -2.5253,11.106595 -1.15945,2.006987 -2.84218,3.925081 -4.76578,5.432396 -0.94588,0.741188 -2.43416,1.993734 -3.30728,2.783436 -2.86772,2.593718 -7.89562,6.502982 -10.212,7.939987 -6.05867,3.758581 -14.46501,6.986291 -20.96554,8.049956 l -2.66502,0.43607 -0.31431,2.108261 c -0.30855,2.069682 -1.80467,6.737622 -2.75035,8.581182 -0.2639,0.51448 -0.78815,1.2232 -1.165,1.57493 -0.82722,0.77211 -0.22031,0.74406 -13.643795,0.63067 z M 66.110131,67.442422 c 1.748861,-0.902473 2.89084,-2.057109 3.765277,-3.807016 0.688713,-1.378238 0.805294,-1.905762 0.80033,-3.62149 -0.0097,-3.369045 -1.150969,-5.006147 -4.174161,-5.987915 -1.7686,-0.574344 -4.456491,-0.422153 -6.205101,0.351338 -1.803363,0.797713 -3.706979,2.810676 -4.393687,4.646067 -0.61891,1.654186 -0.751329,4.14867 -0.285657,5.38117 0.536467,1.419879 2.342915,2.853172 4.481084,3.555431 1.254633,0.412073 4.802243,0.106646 6.011915,-0.517585 z m 25.298793,-1.363001 c 1.675508,-0.803048 3.613483,-2.718925 4.400917,-4.350737 0.783876,-1.624442 1.034714,-4.853245 0.519888,-6.692028 -1.082955,-3.867933 -6.987111,-5.765735 -11.417305,-3.669919 -1.802701,0.852813 -3.729759,2.773844 -4.63157,4.617083 -1.021168,2.087189 -1.154216,5.24428 -0.291404,6.914579 0.720539,1.394872 2.741138,3.018427 4.450431,3.575925 1.79515,0.5855 5.342943,0.384464 6.969043,-0.394903 z m 25.503026,-0.843124 c 1.97312,-0.738243 4.09132,-2.762883 5.15853,-4.930693 0.79162,-1.608003 0.86469,-1.965357 0.84792,-4.146469 -0.0292,-3.795829 -1.06217,-5.455705 -4.34727,-6.985517 -1.89819,-0.883955 -5.22024,-0.964851 -7.33928,-0.178723 -6.39935,2.374065 -8.93803,11.186706 -4.24935,14.750975 2.98125,2.266301 6.46009,2.78848 9.92945,1.490427 z"
           style="fill:#e7d7a9;stroke-width:0.26458332" />
        <path
           inkscape:connector-curvature="0"
           id="path33"
           d="m 104.15134,107.85693 c -0.72761,-0.11977 -6.561668,-0.40557 -12.964584,-0.63513 -13.942901,-0.49988 -17.611147,-0.68914 -17.479732,-0.90189 0.05439,-0.088 5.676456,0.0391 12.493479,0.28259 15.222097,0.54366 19.084597,0.58526 18.700727,0.20138 -0.17739,-0.17739 -5.128782,-0.47059 -13.34823,-0.79044 -14.694423,-0.57181 -16.349887,-0.66198 -13.463118,-0.7333 1.091406,-0.027 7.438167,0.14034 14.103915,0.37179 6.665748,0.23145 12.295443,0.35332 12.510433,0.27082 0.32675,-0.12539 0.38242,-0.8997 0.33927,-4.71896 -0.0407,-3.601714 0.0526,-5.057288 0.44056,-6.875626 0.27069,-1.268662 0.42914,-2.369672 0.35212,-2.446692 -0.077,-0.07702 -0.78527,-0.02379 -1.5739,0.118276 -7.894014,1.422128 -20.070528,1.414518 -34.180891,-0.02135 -1.712537,-0.174267 -3.187078,-0.243475 -3.276759,-0.153794 -0.08968,0.08968 -0.01736,0.514805 0.160716,0.944721 0.256098,0.618271 0.254558,1.103972 -0.0074,2.323587 -0.535818,2.494984 -0.533252,2.493709 -4.856567,2.408798 l -3.723,-0.07314 -0.172283,-1.852083 c -0.227023,-2.440564 -0.564306,-3.24966 -1.447025,-3.471209 -0.819825,-0.205764 -1.277726,0.255577 -1.672394,1.684946 -0.230846,0.836054 -0.122206,1.494303 0.659469,3.995764 0.161538,0.516943 0.109773,0.606319 -0.306491,0.529167 -0.347866,-0.06448 -0.655741,-0.569945 -1.007904,-1.654765 -0.523454,-1.612482 -0.523467,-1.612265 0.295257,-4.428837 0.100131,-0.344472 -0.111575,-0.45902 -1.021578,-0.552752 -1.73863,-0.179086 -8.827411,-2.438373 -13.241414,-4.220215 l -3.92616,-1.58491 -1.637493,1.516028 c -2.784342,2.577812 -3.966168,3.019423 -5.291195,1.977158 -0.934763,-0.735286 -1.05658,-1.783919 -0.580047,-4.993207 l 0.416215,-2.803064 -1.843138,-1.728301 c -2.439915,-2.2879 -3.535287,-3.725672 -4.651434,-6.105417 -2.045059,-4.360286 -1.754985,-9.800077 0.789476,-14.805179 0.480864,-0.945885 1.237605,-2.255573 1.681649,-2.910416 0.972821,-1.434648 0.984289,-1.655858 0.180108,-3.474255 -1.042671,-2.357662 -2.016324,-5.739055 -2.016324,-7.002472 0,-0.90417 0.152994,-1.341987 0.638671,-1.827665 1.500299,-1.500299 2.96296,-1.215178 6.823074,1.330042 1.644113,1.084068 3.134783,1.972716 3.312602,1.974774 0.177818,0.0021 1.400185,-0.703374 2.71637,-1.567628 2.861387,-1.878887 8.460686,-4.751627 12.835323,-6.585207 4.746021,-1.989242 9.31627,-3.514976 17.07162,-5.699199 l 1.461206,-0.411535 0.298569,-1.896147 c 0.360783,-2.291248 0.88547,-2.912258 3.133323,-3.708534 2.887368,-1.022816 11.74856,-3.125475 15.601708,-3.702106 l 3.79617,-0.568103 1.940576,0.584007 c 1.067316,0.321204 3.547919,1.354575 5.512451,2.29638 l 3.571884,1.712374 4.89418,0.118852 c 8.5999,0.208842 15.70657,1.311741 22.19754,3.444878 6.44939,2.119474 11.95357,5.161604 15.4549,8.541854 2.06513,1.993716 2.03083,1.750793 0.75216,5.327189 -1.26832,3.547411 -1.72901,7.460097 -1.52651,12.964584 0.0937,2.546615 0.28225,5.404115 0.41905,6.35 0.84257,5.82617 1.35036,9.169916 1.73515,11.425783 0.25179,1.476129 0.34323,2.728275 0.2157,2.953938 -0.36272,0.641866 -6.91561,5.911967 -9.48176,7.625615 -6.12273,4.088696 -17.57194,8.45004 -23.11533,8.805315 l -1.7555,0.112509 -0.31662,2.204436 c -0.49643,3.456373 -2.4259,8.619573 -3.73174,9.986013 -0.83287,0.87152 -1.34077,0.93942 -3.88914,0.51996 z m -38.1,-40.215039 c 1.67091,-0.792914 3.280789,-2.391831 4.114906,-4.086887 0.911704,-1.852729 0.929002,-5.242621 0.03601,-7.055572 -0.810155,-1.644761 -2.357594,-3.202726 -4.075676,-4.103399 -1.206265,-0.632362 -1.706806,-0.733465 -3.647109,-0.736666 -2.648797,-0.0044 -4.202512,0.612589 -5.952538,2.363673 -1.681281,1.682303 -2.344621,3.31895 -2.364832,5.834698 -0.01437,1.78775 0.09839,2.363354 0.725559,3.704167 1.122857,2.400519 2.607392,3.736954 5.03175,4.52977 1.624071,0.531106 4.511167,0.319333 6.131935,-0.449784 z m 25.331218,-1.370253 c 1.847152,-0.84781 3.777372,-2.771696 4.651073,-4.63581 0.606335,-1.293667 0.708779,-1.859389 0.705276,-3.894757 -0.0054,-3.148118 -0.628028,-4.576257 -2.936488,-6.735707 -2.582553,-2.415852 -5.600758,-3.180423 -8.851495,-2.242257 -4.45003,1.284283 -7.431312,5.879344 -6.675876,10.289546 0.680122,3.970528 3.258145,6.893521 6.888328,7.810067 1.642782,0.414768 4.650513,0.128907 6.219182,-0.591082 z m 25.923352,-1.041726 c 4.10444,-1.912509 6.31568,-6.01908 5.7076,-10.599772 -0.3782,-2.848959 -2.39062,-5.633562 -5.16108,-7.141436 -6.45554,-3.513546 -14.36255,1.23938 -14.36255,8.633371 0,4.447477 2.38834,7.960281 6.4251,9.450139 2.04837,0.755997 5.36336,0.602467 7.39093,-0.342302 z M 73.658111,105.04427 c 0.400182,-0.0606 1.055026,-0.0606 1.455208,0 0.400182,0.0606 0.07276,0.11023 -0.727604,0.11023 -0.800364,0 -1.127786,-0.0496 -0.727604,-0.11023 z M 40.360222,99.210459 c -0.892948,-0.596238 -1.147955,-2.372799 -0.50263,-3.501678 0.534323,-0.934699 0.48448,-2.23061 -0.132292,-3.439584 -0.291042,-0.570489 -0.529167,-1.464789 -0.529167,-1.987336 0,-0.834043 0.112065,-0.996905 0.917544,-1.333457 1.128387,-0.471469 1.072072,-0.472625 1.577099,0.0324 0.515842,0.515842 0.530624,1.573427 0.04138,2.960103 -0.481378,1.364368 -0.205947,1.651206 1.585543,1.651206 0.87659,0 1.485041,0.138742 1.689653,0.385286 0.55006,0.662781 0.03948,0.937631 -1.741809,0.937631 h -1.720198 l 0.18231,1.850154 c 0.220988,2.242677 -0.293361,3.162448 -1.367429,2.445274 z m 7.608304,-1.789676 c -1.126907,-1.432631 -0.912838,-3.750723 0.474485,-5.138047 0.872672,-0.872673 1.160402,-0.358886 0.375391,0.670319 -0.82,1.075074 -0.919643,2.479588 -0.265639,3.744288 0.759386,1.468491 0.375618,1.943698 -0.584237,0.72344 z"
           style="fill:#ccbb92;stroke-width:0.26458332" />
        <path
           inkscape:connector-curvature="0"
           id="path31"
           d="m 40.315106,98.574004 c -0.509682,-0.509683 -0.399498,-2.450291 0.179738,-3.165618 l 0.504961,-0.623599 0.165051,0.925018 c 0.341765,1.915395 0.298415,3.017475 -0.122146,3.105348 -0.22131,0.04624 -0.548732,-0.06228 -0.727604,-0.241149 z M 58.455884,95.642635 C 58.236928,92.267012 57.389438,91.480289 53.96841,91.476924 52.051994,91.475071 45.819853,89.62061 40.464061,87.458588 l -3.92616,-1.58491 -1.637493,1.516028 c -2.784342,2.577812 -3.966168,3.019423 -5.291195,1.977158 -0.934763,-0.735286 -1.05658,-1.783919 -0.580047,-4.993207 l 0.416215,-2.803064 -1.843138,-1.728301 c -2.439915,-2.2879 -3.535287,-3.725672 -4.651434,-6.105417 -2.045059,-4.360286 -1.754985,-9.800077 0.789476,-14.805179 0.480864,-0.945885 1.237605,-2.255573 1.681649,-2.910416 0.972821,-1.434648 0.984289,-1.655858 0.180108,-3.474255 -1.042671,-2.357662 -2.016324,-5.739055 -2.016324,-7.002472 0,-0.90417 0.152994,-1.341987 0.638671,-1.827665 1.500299,-1.500299 2.96296,-1.215178 6.823074,1.330042 1.644113,1.084068 3.134783,1.972716 3.312602,1.974774 0.177818,0.0021 1.400185,-0.703374 2.71637,-1.567628 2.861387,-1.878887 8.460686,-4.751627 12.835323,-6.585207 4.746021,-1.989242 9.31627,-3.514976 17.07162,-5.699199 l 1.461206,-0.411535 0.298569,-1.896147 c 0.360783,-2.291248 0.88547,-2.912258 3.133323,-3.708534 2.887368,-1.022816 11.74856,-3.125475 15.601708,-3.702106 l 3.79617,-0.568103 1.940576,0.584007 c 1.067316,0.321204 3.547919,1.354575 5.512451,2.29638 l 3.571879,1.712374 4.89418,0.118852 c 8.5999,0.208842 15.70657,1.311741 22.19754,3.444878 6.4494,2.119474 11.95357,5.161604 15.4549,8.541854 2.06513,1.993716 2.03083,1.750793 0.75216,5.327189 -1.71219,4.788938 -2.01256,11.267607 -0.96882,20.896639 0.43112,3.977304 1.5795,11.494045 1.87278,12.258331 0.19567,0.509903 -0.40884,1.086885 -5.04441,4.814682 -4.97856,4.003617 -8.96233,6.310746 -15.03822,8.709118 -3.92971,1.551201 -8.65334,2.919544 -11.53106,3.340322 -2.1391,0.312777 -2.22809,0.304723 -2.63891,-0.238821 -0.38123,-0.504418 -0.53141,-0.53313 -1.45401,-0.277995 -1.90071,0.525619 -3.33402,-0.188971 -4.53054,-2.258745 -0.25318,-0.43796 -0.44733,-0.440153 -3.57187,-0.04033 -10.116087,1.294466 -17.454166,1.267774 -31.070946,-0.113017 -2.756953,-0.279567 -5.070245,-0.450697 -5.14065,-0.380294 -0.0704,0.07041 0.07712,0.558168 0.327834,1.083919 0.396777,0.832051 0.414494,1.148736 0.136732,2.444075 -0.514755,2.400552 -0.541544,2.414204 -4.73728,2.414204 H 58.580304 Z M 66.05134,67.641891 c 1.67091,-0.792914 3.280789,-2.391831 4.114906,-4.086887 0.533061,-1.083267 0.647594,-1.713764 0.647594,-3.564974 0,-1.964614 -0.09844,-2.443242 -0.778602,-3.785601 -0.858594,-1.694508 -2.170062,-3.016985 -3.90583,-3.938622 -0.951182,-0.505047 -1.546074,-0.603943 -3.649942,-0.606771 -2.854651,-0.0038 -4.077552,0.451818 -5.909839,2.202037 -3.684894,3.519845 -3.31819,9.790457 0.754192,12.896612 2.352744,1.794526 6.025152,2.166586 8.727521,0.884206 z m 25.331218,-1.370253 c 1.847152,-0.84781 3.777372,-2.771696 4.651073,-4.63581 0.604785,-1.290357 0.709375,-1.864593 0.709375,-3.894757 0,-2.019998 -0.105773,-2.606831 -0.697222,-3.868211 -0.943907,-2.013066 -2.274581,-3.416853 -4.258863,-4.49286 -1.573318,-0.853155 -1.794388,-0.899189 -4.304332,-0.896294 -2.23475,0.0026 -2.839714,0.09895 -3.8937,0.620266 -1.872028,0.925932 -3.447566,2.451622 -4.459954,4.318853 -0.852623,1.572556 -0.906762,1.823315 -0.906762,4.199771 0,2.356768 0.06152,2.648559 0.911387,4.322937 1.272394,2.506814 3.420213,4.258316 6.029816,4.917187 1.642782,0.414768 4.650513,0.128907 6.219182,-0.591082 z m 25.923352,-1.041726 c 7.74614,-3.609395 7.73931,-14.528649 -0.0113,-18.162025 -1.29565,-0.607375 -1.84623,-0.703899 -4.0151,-0.703899 -2.21011,0 -2.71228,0.0918 -4.15987,0.760456 -1.8111,0.83656 -3.90087,2.827672 -4.77612,4.550623 -1.61683,3.182789 -1.34417,6.992157 0.72191,10.086142 1.17987,1.766869 2.83485,3.067415 4.8496,3.811005 2.04837,0.755997 5.36336,0.602467 7.39093,-0.342302 z M 41.048217,94.284431 c 0,-0.330965 0.254399,-0.421767 1.124479,-0.40136 0.618463,0.0145 1.422135,0.1217 1.785937,0.23821 0.551293,0.176553 0.463162,0.216831 -0.529166,0.241821 -0.654844,0.01648 -1.458516,0.10178 -1.785938,0.189526 -0.437656,0.117287 -0.595312,0.04626 -0.595312,-0.268197 z M 40.013486,91.92108 c -0.304023,-0.628029 -0.552769,-1.3339 -0.552769,-1.568604 0,-0.627687 0.738754,-1.258279 1.474107,-1.258279 0.581898,0 0.642559,0.108675 0.642559,1.151144 0,1.239187 -0.445935,2.817606 -0.79603,2.817606 -0.118304,0 -0.463844,-0.513842 -0.767867,-1.141867 z"
           style="fill:#9bd79f;stroke-width:0.26458332" />
        <path
           inkscape:connector-curvature="0"
           id="path29"
           d="m 40.315106,98.574004 c -0.509682,-0.509683 -0.399498,-2.450291 0.179738,-3.165618 l 0.504961,-0.623599 0.165051,0.925018 c 0.341765,1.915395 0.298415,3.017475 -0.122146,3.105348 -0.22131,0.04624 -0.548732,-0.06228 -0.727604,-0.241149 z m 18.460193,-2.483477 c 0,-1.818151 -0.512159,-3.504962 -1.237408,-4.075444 -0.378497,-0.297725 -1.26074,-0.566478 -2.149674,-0.654843 -0.829241,-0.08243 -2.222084,-0.278273 -3.095209,-0.4352 -2.058138,-0.369909 -10.22132,-3.064206 -13.0437,-4.305134 -1.207509,-0.53091 -2.384233,-0.965292 -2.614942,-0.965292 -0.230708,0 -1.277112,0.814676 -2.325342,1.810393 -1.979528,1.880356 -3.026808,2.355413 -4.205044,1.90745 -0.343892,-0.130747 -0.701029,-0.435176 -0.793636,-0.676505 -0.256527,-0.668499 -0.202537,-2.669419 0.137734,-5.104512 l 0.306786,-2.195467 -1.873339,-1.709761 c -2.939362,-2.682698 -4.742822,-5.485871 -5.718851,-8.888987 -0.463157,-1.614885 -0.576283,-4.971926 -0.192672,-5.717556 0.130002,-0.252688 0.382792,-1.114275 0.561754,-1.914639 0.431749,-1.930887 1.816885,-4.918713 3.183425,-6.866851 l 1.106787,-1.577832 -0.939502,-2.326098 c -1.0712,-2.652159 -2.032165,-5.953532 -2.032165,-6.98145 0,-0.999205 0.894833,-2.001956 1.965793,-2.202869 1.190952,-0.223424 2.316201,0.255543 5.169523,2.200428 3.619664,2.467238 3.109024,2.418264 5.959699,0.571583 6.961691,-4.509816 17.209816,-8.836122 27.970383,-11.80786 1.934289,-0.534192 3.649268,-1.076779 3.81106,-1.20575 0.16179,-0.128971 0.359246,-0.9522 0.438788,-1.829398 0.17327,-1.910852 0.675677,-2.761793 1.943314,-3.291446 1.751494,-0.731821 7.775249,-2.295911 12.690215,-3.29506 2.683637,-0.54555 4.957546,-1.070112 5.053129,-1.165695 0.282943,-0.282941 3.525176,-0.199432 3.525176,0.0908 0,0.145521 0.17327,0.264583 0.385045,0.264583 0.466802,0 5.395378,2.087764 7.867494,3.332702 1.7749,0.893823 1.81597,0.900649 5.43304,0.902894 16.1724,0.01004 31.64466,4.840872 38.78769,12.110494 l 1.54097,1.568286 -0.68812,1.634903 c -1.74276,4.140622 -2.45461,9.978008 -1.9978,16.382642 0.26582,3.726786 1.45726,12.974079 2.12582,16.499417 0.45364,2.392024 0.51332,2.289355 -3.01459,5.186489 -4.26094,3.499104 -6.82781,5.249744 -10.51763,7.173146 -5.41851,2.824525 -13.1068,5.497867 -17.37907,6.042985 -1.70283,0.217273 -1.99638,0.189789 -2.4833,-0.232516 -0.39689,-0.344225 -0.74673,-0.424222 -1.24389,-0.284448 -0.38044,0.106955 -1.21064,0.190929 -1.84491,0.186606 -1.17942,-0.008 -1.62941,-0.351973 -2.97256,-2.271956 l -0.4216,-0.602663 -3.54715,0.466251 c -9.223907,1.212432 -17.563976,1.182336 -30.495136,-0.110043 -3.034207,-0.303246 -5.588389,-0.47971 -5.675958,-0.392141 -0.08757,0.08757 0.04576,0.712271 0.296286,1.388229 0.309372,0.834731 0.368995,1.315516 0.185854,1.498658 -0.148307,0.148307 -0.269651,0.713584 -0.269651,1.256168 0,1.660866 -0.367667,1.818066 -4.252232,1.818066 h -3.420684 z m 5.595263,-27.464629 c 2.897176,-0.681919 5.082674,-2.520511 6.359016,-5.349653 0.861685,-1.910006 0.827135,-4.770226 -0.08124,-6.725799 -1.252899,-2.697263 -3.168395,-4.370872 -5.917181,-5.169964 -3.106734,-0.903152 -6.397926,0.05407 -8.719496,2.536021 -1.765105,1.887038 -2.348498,3.346739 -2.374511,5.941235 -0.01767,1.762194 0.09554,2.365685 0.675999,3.603628 1.276485,2.722361 3.700592,4.716796 6.373111,5.243481 1.630186,0.321267 2.019393,0.312925 3.684305,-0.07895 z M 89.58695,67.261814 c 2.635337,-0.433869 5.301377,-2.544947 6.620835,-5.24265 1.656162,-3.386106 1.453346,-6.693305 -0.594399,-9.69251 -1.977406,-2.896185 -4.803796,-4.382999 -8.263088,-4.346774 -4.609798,0.04827 -8.245512,2.953203 -9.41642,7.523708 -1.35183,5.276702 2.420673,10.946191 7.897582,11.868851 1.375971,0.231802 1.740868,0.221052 3.75549,-0.110625 z m 26.17439,-1.056947 c 6.8084,-1.773361 9.95476,-9.641469 6.20924,-15.527435 -2.84855,-4.476402 -8.57872,-6.11185 -13.2529,-3.782508 -1.94468,0.969116 -3.9801,3.054377 -4.87821,4.997644 -0.66146,1.431234 -0.74646,1.91648 -0.74646,4.261003 0,2.425343 0.0702,2.794109 0.84287,4.425096 2.17638,4.594254 6.9917,6.885236 11.82546,5.6262 z M 41.048217,94.284431 c 0,-0.330965 0.254399,-0.421767 1.124479,-0.40136 0.618463,0.0145 1.422135,0.1217 1.785937,0.23821 0.551293,0.176553 0.463162,0.216831 -0.529166,0.241821 -0.654844,0.01648 -1.458516,0.10178 -1.785938,0.189526 -0.437656,0.117287 -0.595312,0.04626 -0.595312,-0.268197 z M 40.013486,91.92108 c -0.304023,-0.628029 -0.552769,-1.3339 -0.552769,-1.568604 0,-0.627687 0.738754,-1.258279 1.474107,-1.258279 0.581898,0 0.642559,0.108675 0.642559,1.151144 0,1.239187 -0.445935,2.817606 -0.79603,2.817606 -0.118304,0 -0.463844,-0.513842 -0.767867,-1.141867 z"
           style="fill:#61ce82;stroke-width:0.26458332" />
        <path
           inkscape:connector-curvature="0"
           id="path27"
           d="m 40.315106,98.574004 c -0.509682,-0.509683 -0.399498,-2.450291 0.179738,-3.165618 l 0.504961,-0.623599 0.165051,0.925018 c 0.341765,1.915395 0.298415,3.017475 -0.122146,3.105348 -0.22131,0.04624 -0.548732,-0.06228 -0.727604,-0.241149 z M 58.958907,95.510343 C 58.585794,91.835606 58.104488,91.360102 54.354734,90.961695 51.09226,90.615065 43.564623,88.291348 39.225017,86.291289 38.149498,85.795597 37.027936,85.39003 36.732659,85.39003 c -0.301493,0 -1.315449,0.751658 -2.312739,1.714461 -2.297489,2.218039 -3.669446,2.766666 -4.597595,1.838515 -0.504592,-0.504589 -0.54939,-2.63299 -0.116659,-5.54247 l 0.299116,-2.011112 -2.09643,-2.034593 c -3.298988,-3.201678 -5.188235,-6.428761 -5.558326,-9.494348 -0.148354,-1.228865 -0.223261,-1.403789 -0.374543,-0.87462 -0.14917,0.521785 -0.193815,0.410044 -0.211424,-0.529166 -0.01611,-0.859457 0.04902,-1.080236 0.234159,-0.79375 0.141064,0.218281 0.258303,0.266795 0.260531,0.107809 0.0024,-0.167949 1.084922,0.08862 2.583739,0.612363 16.789356,5.866757 40.386176,8.949655 61.449476,8.028305 19.187236,-0.839288 36.948496,-3.794686 53.508746,-8.903632 2.14466,-0.661641 4.01989,-1.128501 4.16719,-1.037465 0.1473,0.09104 0.26781,0.469259 0.26781,0.840499 0,0.371242 0.3663,2.990175 0.814,5.819854 0.64329,4.065905 0.74701,5.225593 0.49456,5.529771 -0.59492,0.716836 -6.72013,5.570612 -8.75042,6.934055 -2.96066,1.988243 -6.49521,3.789881 -10.6821,5.4449 -5.77375,2.282285 -12.9598,4.011517 -13.27347,3.194095 -0.21804,-0.568201 -0.92887,-0.678206 -2.2291,-0.344969 -1.68666,0.432279 -2.68551,0.0076 -3.58268,-1.523331 -0.80637,-1.375968 -0.49379,-1.347885 -6.39081,-0.574177 -6.128292,0.804053 -16.942053,0.798838 -25.323933,-0.01222 -3.201458,-0.309782 -6.607802,-0.639487 -7.569652,-0.732679 -1.093534,-0.105952 -1.811639,-0.0678 -1.916473,0.101828 -0.09221,0.149198 0.01132,0.699595 0.230048,1.223105 0.425143,1.017508 0.298484,3.691596 -0.205089,4.329901 -0.183309,0.232354 -1.224095,0.330729 -3.499067,0.330729 H 59.113378 L 58.958907,95.51033 Z m -17.91069,-1.225912 c 0,-0.330965 0.254399,-0.421767 1.124479,-0.40136 0.618463,0.0145 1.422135,0.1217 1.785937,0.23821 0.551293,0.176553 0.463162,0.216831 -0.529166,0.241821 -0.654844,0.01648 -1.458516,0.10178 -1.785938,0.189526 -0.437656,0.117287 -0.595312,0.04626 -0.595312,-0.268197 z M 40.013486,91.92108 c -0.304023,-0.628029 -0.552769,-1.3339 -0.552769,-1.568604 0,-0.627687 0.738754,-1.258279 1.474107,-1.258279 0.581898,0 0.642559,0.108675 0.642559,1.151144 0,1.239187 -0.445935,2.817606 -0.79603,2.817606 -0.118304,0 -0.463844,-0.513842 -0.767867,-1.141867 z M 26.820468,67.92654 c -0.47646,-0.290496 -1.179522,-0.528177 -1.562361,-0.528177 -0.657582,0 -0.671859,-0.02675 -0.258188,-0.483854 0.240835,-0.26612 0.437882,-0.748056 0.437882,-1.070967 0,-0.322911 0.298644,-0.863886 0.663654,-1.202166 1.064272,-0.986335 2.635473,-1.293207 5.314867,-1.038048 l 2.34338,0.22316 1.020361,1.543516 c 0.561199,0.848931 0.959393,1.604481 0.884876,1.678998 -0.07452,0.07452 -1.12007,0.421733 -2.323452,0.771589 -2.784719,0.809598 -5.299905,0.850463 -6.521019,0.105949 z M 26.163029,52.515394 c -2.77175,-6.820212 -2.690253,-9.061823 0.329454,-9.061823 1.119974,0 1.537962,0.189737 3.674915,1.668149 1.326163,0.917482 2.89349,1.942092 3.482948,2.27691 l 1.071741,0.60876 -3.707199,3.477778 c -2.038961,1.912778 -3.740972,3.477707 -3.782248,3.477622 -0.04128,-8.5e-5 -0.522601,-1.101413 -1.069611,-2.447396 z M 132.99092,40.146279 c -0.0899,-0.145521 -0.0374,-0.264583 0.11668,-0.264583 0.15411,0 0.2802,0.119062 0.2802,0.264583 0,0.145521 -0.0525,0.264583 -0.11668,0.264583 -0.0642,0 -0.19026,-0.119062 -0.2802,-0.264583 z"
           style="fill:#53c374;stroke-width:0.26458332" />
        <path
           inkscape:connector-curvature="0"
           id="path25"
           d="m 40.315106,98.574004 c -0.509682,-0.509683 -0.399498,-2.450291 0.179738,-3.165618 l 0.504961,-0.623599 0.165051,0.925018 c 0.341765,1.915395 0.298415,3.017475 -0.122146,3.105348 -0.22131,0.04624 -0.548732,-0.06228 -0.727604,-0.241149 z m 18.724776,-2.483477 c 0,-0.517644 -0.134344,-1.474706 -0.298545,-2.126803 -0.1642,-0.652098 -0.227004,-1.257171 -0.139567,-1.344607 0.08744,-0.08744 1.829128,0.171169 3.87042,0.574683 l 3.711442,0.733663 v 1.234617 c 0,0.67904 -0.142875,1.377492 -0.3175,1.552117 -0.212526,0.212527 -1.393473,0.3175 -3.571875,0.3175 H 59.039882 Z M 41.048217,94.284431 c 0,-0.330965 0.254399,-0.421767 1.124479,-0.40136 0.618463,0.0145 1.422135,0.1217 1.785937,0.23821 0.551293,0.176553 0.463162,0.216831 -0.529166,0.241821 -0.654844,0.01648 -1.458516,0.10178 -1.785938,0.189526 -0.437656,0.117287 -0.595312,0.04626 -0.595312,-0.268197 z M 40.013486,91.92108 c -0.304023,-0.628029 -0.552769,-1.3339 -0.552769,-1.568604 0,-0.627687 0.738754,-1.258279 1.474107,-1.258279 0.581898,0 0.642559,0.108675 0.642559,1.151144 0,1.239187 -0.445935,2.817606 -0.79603,2.817606 -0.118304,0 -0.463844,-0.513842 -0.767867,-1.141867 z M 29.785609,88.90629 c -0.398308,-0.398306 -0.427432,-0.7864 -0.243228,-3.241146 0.115093,-1.53376 0.227842,-3.383968 0.250552,-4.111572 0.03807,-1.219891 0.0916,-1.321655 0.68735,-1.306714 0.806789,0.02023 6.863767,3.966631 6.863767,4.472057 0,0.20398 -0.26789,0.452898 -0.595312,0.553148 -0.327422,0.100254 -1.384923,0.939313 -2.350002,1.864583 -2.312768,2.217361 -3.651759,2.731013 -4.613127,1.769644 z m 44.467814,-1.13501 c -0.510823,-0.129981 0.337955,-0.214767 2.38125,-0.237863 1.74625,-0.01974 4.246563,-0.148187 5.55625,-0.28544 1.309687,-0.13725 3.81,-0.308711 5.55625,-0.381019 l 3.175,-0.131471 -1.815394,0.374354 c -1.84849,0.381177 -9.859888,0.951531 -12.567602,0.89472 -0.820602,-0.01722 -1.849191,-0.122195 -2.285754,-0.233281 z M 49.448737,84.421052 c 0.181901,-0.0734 0.479557,-0.0734 0.661458,0 0.181901,0.0734 0.03307,0.133453 -0.330729,0.133453 -0.363802,0 -0.51263,-0.06006 -0.330729,-0.133453 z m 55.579033,-0.0055 c 0.191,-0.07643 0.4192,-0.06703 0.50712,0.02088 0.0879,0.08792 -0.0684,0.150453 -0.34727,0.138965 -0.30822,-0.0127 -0.37092,-0.07539 -0.15985,-0.159851 z M 48.40694,84.150965 c 0.190995,-0.07643 0.419198,-0.06703 0.507119,0.02088 0.08792,0.08792 -0.06835,0.150453 -0.347265,0.138965 -0.308227,-0.0127 -0.37092,-0.07539 -0.159854,-0.159851 z m 58.12565,0.02993 c 0.14552,-0.05997 2.11005,-0.5745 4.36562,-1.143415 3.88869,-0.980832 6.01569,-1.555989 11.50938,-3.112225 4.80809,-1.362023 14.38359,-4.413634 18.22524,-5.808197 2.17202,-0.788467 4.00498,-1.377704 4.07327,-1.309421 0.46205,0.462047 -0.88977,1.089245 -6.46115,2.997743 -8.80004,3.014493 -17.65079,5.590249 -23.37799,6.803493 -7.281,1.542399 -9.09099,1.883797 -8.33437,1.572022 z M 46.207591,83.660296 c -1.043393,-0.360982 -1.04526,-0.363945 -0.132291,-0.209926 1.079313,0.182084 2.182765,0.584983 1.5875,0.579639 -0.218282,-0.0019 -0.873125,-0.168331 -1.455209,-0.369713 z m -3.704166,-0.947918 c -3.764269,-1.063789 -9.825607,-3.097993 -11.641666,-3.90698 -0.582083,-0.259297 -1.772708,-0.735333 -2.645833,-1.057857 -1.663494,-0.614479 -2.707681,-1.2474 -2.46248,-1.4926 0.154873,-0.154874 1.815789,0.458465 4.191255,1.547733 2.008742,0.92111 2.981334,1.280383 9.516016,3.515191 5.572492,1.905746 6.731696,2.437024 3.042708,1.394513 z M 26.297697,67.237158 c -0.865669,-0.628923 -0.783033,-1.750465 0.189255,-2.568594 0.986575,-0.830146 2.421972,-1.078047 4.837509,-0.835464 1.591594,0.159837 2.011403,0.310121 2.649906,0.948624 0.417284,0.417285 0.681077,0.884296 0.586205,1.037802 -0.09487,0.153506 -0.03024,0.450506 0.143625,0.66 0.534205,0.643678 -0.889831,0.98969 -4.503896,1.094357 -2.747072,0.07956 -3.408132,0.02252 -3.902604,-0.336725 z m -0.08422,-14.58898 c -1.134133,-2.699922 -2.098592,-6.018869 -2.098592,-7.221782 0,-1.33763 0.755245,-1.972825 2.345683,-1.972825 1.104046,0 1.582654,0.233236 4.614941,2.248958 l 3.383148,2.248959 -2.989073,2.850814 c -1.643991,1.567947 -3.305322,3.086145 -3.691848,3.373773 l -0.702774,0.52296 z"
           style="fill:#4db676;stroke-width:0.26458332" />
      </g>
    </g>
  </g>
</svg>
